<?xml version="1.0" encoding="UTF-8" standalone="no"?>
<svg
   xmlns:dc="http://purl.org/dc/elements/1.1/"
   xmlns:cc="http://creativecommons.org/ns#"
   xmlns:rdf="http://www.w3.org/1999/02/22-rdf-syntax-ns#"
   xmlns:svg="http://www.w3.org/2000/svg"
   xmlns="http://www.w3.org/2000/svg"
   id="svg8"
   version="1.1"
   viewBox="0 0 210 297"
   height="297mm"
   width="210mm">
  <defs
     id="defs2" />
  <metadata
     id="metadata5">
    <rdf:RDF>
      <cc:Work
         rdf:about="">
        <dc:format>image/svg+xml</dc:format>
        <dc:type
           rdf:resource="http://purl.org/dc/dcmitype/StillImage" />
        <dc:title></dc:title>
      </cc:Work>
    </rdf:RDF>
  </metadata>
  <g
     id="layer1">
    <path
       style="stroke-width:0.264583;fill:#4b658c;fill-opacity:1"
       id="path74"
       fill="#d33a2c"
       d="m 106.17729,146.07646 c -0.10583,-0.0265 -0.23812,-0.0265 -0.34396,-0.0265 -1.16416,0 -2.11666,0.9525 -2.11666,2.11667 0,1.16416 0.9525,2.11666 2.11666,2.11666 0.10584,0 0.23813,0 0.34396,-0.0265 1.03188,-0.15876 1.77271,-1.05834 1.77271,-2.09021 0,-1.03188 -0.74083,-1.905 -1.77271,-2.09021 z m -0.29104,3.67771 c -0.0265,0 -0.0265,0 -0.0529,0 -0.87312,0 -1.5875,-0.71438 -1.5875,-1.5875 0,-0.87313 0.71438,-1.5875 1.5875,-1.5875 0.0265,0 0.0265,0 0.0529,0 z" />
  </g>
</svg>
